<svg xmlns="http://www.w3.org/2000/svg" xmlns:xlink="http://www.w3.org/1999/xlink" id="Layer_1" data-name="Layer 1" viewBox="0 0 500 350"><defs><style>      .cls-1 {        clip-path: url(#clippath);      }      .cls-2 {        fill: none;      }      .cls-2, .cls-3, .cls-4 {        stroke-width: 0px;      }      .cls-3, .cls-5 {        fill: #000;      }      .cls-5 {        font-family: TimesNewRomanPSMT, 'Times New Roman';        font-size: 36.8px;      }      .cls-4 {        fill: #fff;      }    </style><clipPath id="clippath"><polygon class="cls-2" points="242.2 54.5 242.2 237.4 304.2 264.1 319 125.5 283.4 54.5 242.2 54.5"></polygon></clipPath></defs><g><path class="cls-3" d="M312.7,146c0,50.5-31.5,91.5-70.4,91.5-38.9,0-70.4-41-70.4-91.5s31.5-91.5,70.4-91.5,70.4,41,70.4,91.5Z"></path><path class="cls-4" d="M308.4,146c0,47.6-29.6,86.2-66.1,86.2-36.5,0-66.1-38.6-66.1-86.2s29.6-86.2,66.1-86.2,66.1,38.6,66.1,86.2Z"></path><g class="cls-1"><ellipse class="cls-4" cx="242.2" cy="146" rx="70.4" ry="91.5"></ellipse><ellipse class="cls-3" cx="242.2" cy="146" rx="66.1" ry="86.2"></ellipse></g></g><g><path class="cls-3" d="M235.3,125.8h0c-11.9,0-21.5,8.3-21.5,18.6s9.6,18.5,21.5,18.6h0s39.3,0,39.3,0v-37.1h-39.3Z"></path><rect class="cls-4" x="242.2" y="125.8" width="32.4" height="12.1"></rect><rect class="cls-4" x="242.2" y="150.8" width="32.4" height="12.1"></rect></g><text class="cls-5" transform="translate(99.8 280.6)"><tspan x="0" y="0">Contraste Éditions</tspan></text></svg>